<svg id="Layer_1" data-name="Layer 1" xmlns="http://www.w3.org/2000/svg" viewBox="0 0 417.82 75.33"><defs><style>.cls-1{fill:none;stroke:#e5e5e5;stroke-linecap:round;stroke-linejoin:round;stroke-width:2px;}.cls-2{fill:#e5e5e5;}.cls-3{fill:#fff;}</style></defs><title>banner-light</title><path class="cls-1" d="M67.39,70.25A187.37,187.37,0,0,1,50,86.67a190.29,190.29,0,0,1-17.4-16.42Z" transform="translate(-12.96 -12.33)"/><path class="cls-1" d="M81.54,45.18c.35,4.19-2,9.32-5.56,14.52V57H24v2.65c-3.55-5.19-5.9-10.3-5.55-14.49,0-.25,0-7.7-.05-15.35,8.27,0,15-7.4,14.93-16.5H66.66c0,9.1,6.66,16.5,14.93,16.5C81.56,37.48,81.53,44.93,81.54,45.18Z" transform="translate(-12.96 -12.33)"/><polygon class="cls-1" points="15.55 57.92 15.55 63.95 1 63.95 4.48 57.92 1 51.88 11.05 51.88 11.05 57.92 15.55 57.92"/><polygon class="cls-1" points="69.6 57.92 73.08 63.95 58.53 63.95 58.53 57.92 63.03 57.92 63.03 51.88 73.08 51.88 69.6 57.92"/><rect class="cls-1" x="11.05" y="44.68" width="51.97" height="13.23"/><path class="cls-2" d="M61.43,53.61H38.57a2,2,0,0,1-1.94-1.94V18.92a2,2,0,0,1,1.94-2H61.43a2,2,0,0,1,1.94,2V51.67A2,2,0,0,1,61.43,53.61ZM38.57,17.89a1,1,0,0,0-1,1V51.67a1,1,0,0,0,1,1H61.43a1,1,0,0,0,1-1V18.92a1,1,0,0,0-1-1Z" transform="translate(-12.96 -12.33)"/><path class="cls-2" d="M59.31,26.87H40.69a.43.43,0,0,1-.44-.44V21a.43.43,0,0,1,.44-.44H59.31a.43.43,0,0,1,.44.44v5.35A.46.46,0,0,1,59.31,26.87ZM41.13,26h17.7V21.52H41.13Z" transform="translate(-12.96 -12.33)"/><path class="cls-2" d="M60,50.61H40a.43.43,0,0,1-.44-.44V30.09a.43.43,0,0,1,.44-.44H60a.42.42,0,0,1,.44.44V50.17A.44.44,0,0,1,60,50.61ZM40.4,49.69H59.56V30.53H40.4Z" transform="translate(-12.96 -12.33)"/><path class="cls-2" d="M57.14,35.62H53.33a.43.43,0,0,1-.44-.44.43.43,0,0,1,.44-.44h3.81a.43.43,0,0,1,.44.44A.44.44,0,0,1,57.14,35.62Z" transform="translate(-12.96 -12.33)"/><path class="cls-2" d="M46.67,35.62H42.86a.42.42,0,0,1-.44-.44.43.43,0,0,1,.44-.44h3.81a.43.43,0,0,1,.44.44A.41.41,0,0,1,46.67,35.62Z" transform="translate(-12.96 -12.33)"/><path class="cls-2" d="M44.76,37.53a.43.43,0,0,1-.44-.44V33.28a.44.44,0,0,1,.88,0v3.81A.4.4,0,0,1,44.76,37.53Z" transform="translate(-12.96 -12.33)"/><path class="cls-2" d="M46.12,47.27a.44.44,0,0,1-.33-.14l-2.68-2.68a.42.42,0,0,1,0-.62.43.43,0,0,1,.63,0l2.67,2.71a.42.42,0,0,1,0,.62A.38.38,0,0,1,46.12,47.27Z" transform="translate(-12.96 -12.33)"/><path class="cls-2" d="M43.44,47.27a.44.44,0,0,1-.33-.14.43.43,0,0,1,0-.63l2.68-2.71a.44.44,0,0,1,.62.62l-2.67,2.72A.35.35,0,0,1,43.44,47.27Z" transform="translate(-12.96 -12.33)"/><path class="cls-2" d="M56.7,45.88H52.89a.44.44,0,1,1,0-.88H56.7a.42.42,0,0,1,.44.44A.4.4,0,0,1,56.7,45.88Z" transform="translate(-12.96 -12.33)"/><path class="cls-2" d="M54.84,44.23a.59.59,0,0,0,.4-.18.57.57,0,1,0-.81-.81.59.59,0,0,0,.41,1Z" transform="translate(-12.96 -12.33)"/><path class="cls-2" d="M54.43,47a.57.57,0,1,0,.81.81.57.57,0,0,0-.81-.81Z" transform="translate(-12.96 -12.33)"/><path class="cls-2" d="M60,40.57H40a.43.43,0,0,1-.44-.44.43.43,0,0,1,.44-.44H60a.42.42,0,0,1,.44.44A.43.43,0,0,1,60,40.57Z" transform="translate(-12.96 -12.33)"/><path class="cls-2" d="M50.11,50.61a.43.43,0,0,1-.44-.44V30.09a.44.44,0,0,1,.88,0V50.17A.44.44,0,0,1,50.11,50.61Z" transform="translate(-12.96 -12.33)"/><path class="cls-3" d="M114.1,54.64v1.7l-1.91.43.77-4.56h1.87l-.12,4.46a12.9,12.9,0,0,1-6.21,1.48c-6.22,0-10.4-4.49-10.4-10.77s4.37-10.76,10.37-10.76a11.84,11.84,0,0,1,5.93,1.47l.13,4.46h-1.88L111.88,38l1.91.43v1.88a7.17,7.17,0,0,0-5-2.15c-4.16,0-7.51,3.23-7.51,9.22s3,9.23,7.29,9.23A8.51,8.51,0,0,0,114.1,54.64Z" transform="translate(-12.96 -12.33)"/><path class="cls-3" d="M122.52,49.63a33.1,33.1,0,0,1,4.77-1.29v1.11a27,27,0,0,0-4.12,1.23c-2.77,1.07-3.08,2.24-3.08,3.13,0,1.63,1.08,2.28,2.49,2.28,1.08,0,1.7-.4,3.63-1.78l.62-.47.43.65-.89.89c-1.85,1.85-2.89,2.71-4.77,2.71-2.24,0-4.12-1.29-4.12-3.85C117.48,52.52,118.4,51.14,122.52,49.63Zm3.54,5.23v-7c0-3-.86-3.76-2.89-3.76a7,7,0,0,0-2.77.56l1.23-1-.8,2.65c-.28.89-.74,1.38-1.57,1.38a1.25,1.25,0,0,1-1.38-1.23c.58-2.34,2.86-3.78,5.94-3.78s4.7,1.44,4.7,5.32v6.52c0,1.39.43,1.88,1.14,1.88a1.53,1.53,0,0,0,1.2-.68l.61.68A2.85,2.85,0,0,1,128.86,58C127.17,58,126.06,56.77,126.06,54.86Z" transform="translate(-12.96 -12.33)"/><path class="cls-3" d="M135.07,57.69c.06-1.38.1-4.55.1-6.46V49.78c0-1.69,0-2.64-.1-3.87l-2.46-.28V44.55l4.18-1.84.47.31.37,3.56v4.65c0,1.91,0,5.08.09,6.46Zm4.8-1.08v1.08H132.8V56.61l3.38-.61h.61ZM147,48.4v2.83c0,2,0,5.08.09,6.46h-2.65c.07-1.38.1-4.49.1-6.46V48.65c0-2.87-.74-3.79-2.59-3.79-1.54,0-2.8.62-4.55,2.12h-.65V45.6h1.57l-1.32.55a8.37,8.37,0,0,1,6.09-3.44C145.72,42.71,147,44.34,147,48.4Zm-.83,7.6,3.07.61v1.08h-7.07V56.61l3.38-.61Z" transform="translate(-12.96 -12.33)"/><path class="cls-3" d="M152.24,44.8l-3-.52V43.11h7.38v1.17l-3.75.52Zm1-1.69L158,55.63l-1.26,1.6,5-14.12h1.66l-5.6,14.76h-1.26L150.3,43.11Zm8.43,1.69-3.08-.52V43.11h5.85v1.17l-2.16.52Z" transform="translate(-12.96 -12.33)"/><path class="cls-3" d="M170.72,49.63a32.75,32.75,0,0,1,4.77-1.29v1.11a27,27,0,0,0-4.12,1.23c-2.77,1.07-3.08,2.24-3.08,3.13,0,1.63,1.08,2.28,2.49,2.28,1.08,0,1.69-.4,3.63-1.78l.62-.47.43.65-.89.89c-1.85,1.85-2.89,2.71-4.77,2.71-2.25,0-4.12-1.29-4.12-3.85C165.68,52.52,166.6,51.14,170.72,49.63Zm3.54,5.23v-7c0-3-.86-3.76-2.89-3.76a7,7,0,0,0-2.77.56l1.23-1-.8,2.65c-.28.89-.74,1.38-1.57,1.38a1.25,1.25,0,0,1-1.38-1.23c.58-2.34,2.86-3.78,5.93-3.78s4.71,1.44,4.71,5.32v6.52c0,1.39.43,1.88,1.14,1.88a1.53,1.53,0,0,0,1.2-.68l.61.68A2.86,2.86,0,0,1,177.06,58C175.37,58,174.26,56.77,174.26,54.86Z" transform="translate(-12.96 -12.33)"/><path class="cls-3" d="M181.49,56.92l-.13-3.35H183l.83,3.63-1.5-.71V55.44a5.83,5.83,0,0,0,3.78,1.27c2.37,0,3.48-1,3.48-2.37s-.93-2-2.86-2.71l-1.42-.52c-2.25-.83-3.72-2-3.72-4.13s1.88-4.27,5.29-4.27A7.87,7.87,0,0,1,191.15,44L191,47.08h-1.54L188.87,44l1.11.49v.8a5,5,0,0,0-3.14-1.17c-1.91,0-2.89.83-2.89,2.13s.77,1.9,2.86,2.67l.92.34c3.08,1.14,4.25,2.58,4.25,4.49,0,2.28-2,4.37-5.94,4.37A9.34,9.34,0,0,1,181.49,56.92Z" transform="translate(-12.96 -12.33)"/><path class="cls-3" d="M219,56.34a14.13,14.13,0,0,1-6.76,1.81c-6.16,0-10.34-4.58-10.34-10.77s4.21-10.76,10.46-10.76a11.62,11.62,0,0,1,6.18,1.47l.12,4.46h-1.87L216,38l1.91.62v1.75a7.48,7.48,0,0,0-5.33-2.21c-4.3,0-7.47,3.35-7.47,9.22s2.89,9.2,7.69,9.2a10,10,0,0,0,4.8-1.26l-1.39,1.45V55c0-2.34,0-4.73-.09-7.07h3c-.07,2.3-.1,4.67-.1,7.07Zm-6.06-7.2V47.91h8v1.23l-3.38.31h-.62Z" transform="translate(-12.96 -12.33)"/><path class="cls-3" d="M225,51.23V49.78c0-1.69,0-2.64-.09-3.87l-2.46-.28V44.55l4.18-1.84.46.31.37,3.84v4.37c0,1.91,0,5.08.09,6.46h-2.64C225,56.31,225,53.14,225,51.23Zm-2.31,5.38,3.39-.61h.61l3.39.61v1.08H222.7Zm3.54-9.53H228l-.77.21c1-2.86,2.87-4.58,4.68-4.58a2.65,2.65,0,0,1,2.18,1c0,1.45-.55,2.25-1.78,2.25a2.79,2.79,0,0,1-1.84-.74l-.84-.71,1.51-.3a7.33,7.33,0,0,0-3.72,4.89h-1.17Z" transform="translate(-12.96 -12.33)"/><path class="cls-3" d="M240.45,49.63a32.75,32.75,0,0,1,4.77-1.29v1.11a26.66,26.66,0,0,0-4.12,1.23c-2.77,1.07-3.08,2.24-3.08,3.13,0,1.63,1.08,2.28,2.49,2.28,1.08,0,1.7-.4,3.63-1.78l.62-.47.43.65-.89.89c-1.85,1.85-2.9,2.71-4.77,2.71-2.25,0-4.12-1.29-4.12-3.85C235.41,52.52,236.33,51.14,240.45,49.63ZM244,54.86v-7c0-3-.86-3.76-2.89-3.76a7,7,0,0,0-2.77.56l1.23-1-.8,2.65c-.28.89-.74,1.38-1.57,1.38a1.25,1.25,0,0,1-1.38-1.23c.58-2.34,2.86-3.78,5.93-3.78s4.71,1.44,4.71,5.32v6.52c0,1.39.43,1.88,1.14,1.88a1.53,1.53,0,0,0,1.2-.68l.61.68A2.87,2.87,0,0,1,246.79,58C245.1,58,244,56.77,244,54.86Z" transform="translate(-12.96 -12.33)"/><path class="cls-3" d="M258,56.4c1.57,0,2.65-.68,4.06-2.49l.28.83c-1.17,2.09-2.61,3.35-5,3.35-3.76,0-6.28-3.11-6.28-7.57,0-4.67,2.77-7.81,6.55-7.81,1.76,0,3.26.71,4.86,3.11l-.3.8c-1.79-1.73-3-2.22-4.19-2.22-2.3,0-4.3,1.85-4.3,6.06S255.49,56.4,258,56.4Zm8.56.21v1.08l-4.71.31-.31-3.14v-9l.09-.4V37.69l-2.64-.3V36.31l4.7-1.38.44.24L264,39.54V57.69l-.49-1.57Z" transform="translate(-12.96 -12.33)"/><path class="cls-3" d="M281.11,48.58a6.4,6.4,0,0,1-.21,1.73H269.55V49h7.32c1.48,0,1.81-.7,1.81-1.56a3.41,3.41,0,0,0-3.41-3.36c-2,0-4.25,1.66-4.25,6.06,0,3.91,2,6,5.05,6A5.34,5.34,0,0,0,280.38,54l.7.55a6.22,6.22,0,0,1-5.87,3.57c-4.12,0-6.8-2.86-6.8-7.54s3.2-7.84,7-7.84A5.49,5.49,0,0,1,281.11,48.58Z" transform="translate(-12.96 -12.33)"/><path class="cls-3" d="M307.32,54.64v1.7l-1.91.43.77-4.56h1.88l-.12,4.46a12.91,12.91,0,0,1-6.22,1.48c-6.21,0-10.4-4.49-10.4-10.77s4.37-10.76,10.37-10.76a11.87,11.87,0,0,1,5.94,1.47l.12,4.46h-1.87L305.11,38l1.9.43v1.88a7.16,7.16,0,0,0-4.95-2.15c-4.15,0-7.51,3.23-7.51,9.22s3,9.23,7.29,9.23A8.49,8.49,0,0,0,307.32,54.64Z" transform="translate(-12.96 -12.33)"/><path class="cls-3" d="M315.75,49.63a32.75,32.75,0,0,1,4.77-1.29v1.11a27.15,27.15,0,0,0-4.13,1.23c-2.77,1.07-3.07,2.24-3.07,3.13,0,1.63,1.07,2.28,2.49,2.28,1.07,0,1.69-.4,3.63-1.78l.61-.47.43.65-.89.89c-1.84,1.85-2.89,2.71-4.77,2.71-2.24,0-4.12-1.29-4.12-3.85C310.7,52.52,311.62,51.14,315.75,49.63Zm3.54,5.23v-7c0-3-.87-3.76-2.9-3.76a7.06,7.06,0,0,0-2.77.56l1.24-1-.81,2.65c-.27.89-.73,1.38-1.56,1.38a1.26,1.26,0,0,1-1.39-1.23c.59-2.34,2.86-3.78,5.94-3.78s4.71,1.44,4.71,5.32v6.52c0,1.39.43,1.88,1.13,1.88a1.5,1.5,0,0,0,1.2-.68l.62.68A2.88,2.88,0,0,1,322.08,58C320.39,58,319.29,56.77,319.29,54.86Z" transform="translate(-12.96 -12.33)"/><path class="cls-3" d="M330.39,34.93l.43.24-.12,4.37V51.23c0,2.15,0,4.31.09,6.46h-2.65c.06-2.15.09-4.31.09-6.46V37.69l-2.55-.3V36.31Zm2.86,21.68v1.08h-7.57V56.61l3.48-.61h.61Z" transform="translate(-12.96 -12.33)"/><path class="cls-3" d="M337.89,50.15c0,3.88,2.06,6,4.95,6a5,5,0,0,0,4.31-2.4l.74.37a5.52,5.52,0,0,1-5.69,4c-4.22,0-6.86-3-6.86-7.66s3.38-7.72,7-7.72c2.74,0,5,1.69,5.42,4a1.28,1.28,0,0,1-1.39,1.14,1.6,1.6,0,0,1-1.63-1.39L344,43.72l1.42,1.14a6.46,6.46,0,0,0-3-.77C339.8,44.09,337.89,46.22,337.89,50.15Z" transform="translate(-12.96 -12.33)"/><path class="cls-3" d="M354.32,52.25c0,2.73.8,3.69,2.49,3.69a6.78,6.78,0,0,0,4.71-2.31h.64V55.2h-1.57l1.08-.46a7.31,7.31,0,0,1-5.85,3.35c-2.46,0-4-1.48-4-5.54l.09-8.12.64.59-2.86-.62V43.32l4.43-.4.31.31-.15,4.31Zm7.32,5.69-.43-3.6.09-9.91L362,45l-2.86-.62V43.32l4.36-.4.31.31-.09,4.31v9.2l-.74-.74,2.86.61v1.08Z" transform="translate(-12.96 -12.33)"/><path class="cls-3" d="M372.34,34.93l.43.24-.12,4.37V51.23c0,2.15,0,4.31.09,6.46H370.1c.06-2.15.09-4.31.09-6.46V37.69l-2.56-.3V36.31Zm2.86,21.68v1.08h-7.57V56.61l3.48-.61h.62Z" transform="translate(-12.96 -12.33)"/><path class="cls-3" d="M382.12,49.63a32.75,32.75,0,0,1,4.77-1.29v1.11a27,27,0,0,0-4.12,1.23c-2.77,1.07-3.08,2.24-3.08,3.13,0,1.63,1.08,2.28,2.49,2.28,1.08,0,1.7-.4,3.63-1.78l.62-.47.43.65-.89.89c-1.85,1.85-2.89,2.71-4.77,2.71-2.25,0-4.12-1.29-4.12-3.85C377.08,52.52,378,51.14,382.12,49.63Zm3.54,5.23v-7c0-3-.86-3.76-2.89-3.76a7,7,0,0,0-2.77.56l1.23-1-.8,2.65c-.28.89-.74,1.38-1.57,1.38a1.25,1.25,0,0,1-1.38-1.23c.58-2.34,2.86-3.78,5.93-3.78s4.71,1.44,4.71,5.32v6.52c0,1.39.43,1.88,1.14,1.88a1.53,1.53,0,0,0,1.2-.68l.61.68A2.86,2.86,0,0,1,388.46,58C386.77,58,385.66,56.77,385.66,54.86Z" transform="translate(-12.96 -12.33)"/><path class="cls-3" d="M398.33,56.55a3.52,3.52,0,0,0,2.09-.86l.71.83a4.41,4.41,0,0,1-3.57,1.57c-2.12,0-3.44-1.11-3.44-3.48,0-.73,0-1.38,0-2.58V44.71h-2.59V43.39l3.82-.5-1.23,1,.92-5h1.79l-.25,5.39v10C396.61,55.87,397.29,56.55,398.33,56.55Zm2.53-13.44v1.6h-5.48v-1.6Z" transform="translate(-12.96 -12.33)"/><path class="cls-3" d="M402.64,50.46c0-5.11,3.47-7.75,7-7.75s7,2.64,7,7.75-3.54,7.63-7,7.63S402.64,55.57,402.64,50.46Zm11.26,0c0-4.12-1.57-6.37-4.25-6.37s-4.24,2.25-4.24,6.37,1.5,6.25,4.24,6.25S413.9,54.58,413.9,50.46Z" transform="translate(-12.96 -12.33)"/><path class="cls-3" d="M421.71,51.23V49.78c0-1.69,0-2.64-.09-3.87l-2.47-.28V44.55l4.19-1.84.46.31.37,3.84v4.37c0,1.91,0,5.08.09,6.46h-2.64C421.68,56.31,421.71,53.14,421.71,51.23Zm-2.31,5.38,3.39-.61h.61l3.38.61v1.08H419.4Zm3.54-9.53h1.75l-.77.21c1-2.86,2.86-4.58,4.68-4.58a2.65,2.65,0,0,1,2.18,1c0,1.45-.55,2.25-1.78,2.25a2.83,2.83,0,0,1-1.85-.74l-.83-.71,1.51-.3a7.3,7.3,0,0,0-3.72,4.89h-1.17Z" transform="translate(-12.96 -12.33)"/></svg>