<svg height='100px' width='100px'  fill="#000000" xmlns="http://www.w3.org/2000/svg" xmlns:xlink="http://www.w3.org/1999/xlink" version="1.1" x="0px" y="0px" viewBox="0 0 98 98" style="enable-background:new 0 0 98 98;" xml:space="preserve"><g><path d="M88.7,11.6c0-0.1-0.1-0.2-0.1-0.3c0-0.1-0.1-0.2-0.1-0.3c0-0.1-0.1-0.2-0.2-0.3c0-0.1-0.1-0.1-0.1-0.2   c-0.2-0.3-0.5-0.6-0.8-0.8c-0.1,0-0.1-0.1-0.2-0.1c-0.1-0.1-0.2-0.1-0.3-0.2c-0.1,0-0.2-0.1-0.3-0.1c-0.1,0-0.2-0.1-0.3-0.1   c-0.2,0-0.4-0.1-0.6-0.1H64.1c-1.7,0-3,1.3-3,3s1.3,3,3,3h14.5L40.9,52.9c-1.2,1.2-1.2,3.1,0,4.2c0.6,0.6,1.4,0.9,2.1,0.9   s1.5-0.3,2.1-0.9l37.7-37.7v14.5c0,1.7,1.3,3,3,3s3-1.3,3-3V12.2C88.8,12,88.8,11.8,88.7,11.6z"></path><path d="M75.6,46.5c-1.7,0-3,1.3-3,3v33.3H15.2V25.4h33.3c1.7,0,3-1.3,3-3s-1.3-3-3-3H12.2c-1.7,0-3,1.3-3,3v63.4c0,1.7,1.3,3,3,3   h63.4c1.7,0,3-1.3,3-3V49.5C78.6,47.8,77.3,46.5,75.6,46.5z"></path></g></svg>